<svg xmlns="http://www.w3.org/2000/svg" viewBox="0 0 100 100">
  <g>
    <path d="M 46.36,97.34 L 9.64,80.66 Q 6,79 5.74,75.01 L 1.26,4.99 Q 1,1 5.0,1.0 L 95.0,1.0 Q 99,1 98.74,4.99 L 94.26,75.01 Q 94,79 90.36,80.66 L 53.64,97.34 Q 50,99 46.36,97.34 Z" fill="none" stroke="#b9824a" stroke-width="2" stroke-linejoin="round"/>
    <path d="M64.20 56.84H35.80Q43.28 62.21 50.00 69.31Q56.72 62.21 64.20 56.84ZM42.82 21.33H16.38V10.00H83.62V21.33H57.18V28.51H76.82V39.47H57.18V45.89H71.16V52.24Q76.60 48.99 82.49 46.27L87.40 57.60Q78.18 62.28 71.80 66.89Q65.41 71.50 59.07 78.00H40.93Q34.59 71.50 28.20 66.89Q21.82 62.28 12.60 57.60L17.51 46.27Q23.48 49.06 28.47 52.01V45.89H42.82V39.47H23.18V28.51H42.82Z" fill="#c0392b" stroke="#c0392b" stroke-width="1.4" stroke-linejoin="round"/>
  </g>
</svg>
