<svg xmlns="http://www.w3.org/2000/svg" viewBox="0 0 100 100">
  <g>
    <path d="M 46.36,97.34 L 9.64,80.66 Q 6,79 5.74,75.01 L 1.26,4.99 Q 1,1 5.0,1.0 L 95.0,1.0 Q 99,1 98.74,4.99 L 94.26,75.01 Q 94,79 90.36,80.66 L 53.64,97.34 Q 50,99 46.36,97.34 Z" fill="none" stroke="#b9824a" stroke-width="2" stroke-linejoin="round"/>
    <path d="M24.27 40.88Q34.56 45.51 43.02 52.27V42.71H56.98V52.27Q65.44 45.51 75.73 40.88ZM17.65 71.38V60.36H36.40Q26.55 54.33 14.35 50.43L19.12 38.67Q20.15 39.04 22.06 39.92V10.00H35.66V12.94H64.34V10.00H77.94V39.92Q79.85 39.04 80.88 38.67L85.65 50.43Q73.45 54.33 63.60 60.36H82.35V71.38H56.98V78.00H43.02V71.38ZM35.66 23.23V30.22H64.34V23.23Z" fill="#c0392b" stroke="#c0392b" stroke-width="1.4" stroke-linejoin="round"/>
  </g>
</svg>
