<svg xmlns="http://www.w3.org/2000/svg" viewBox="0 0 100 100">
  <g>
    <path d="M 53.64,2.66 L 90.36,19.34 Q 94,21 94.26,24.99 L 98.74,95.01 Q 99,99 95.0,99.0 L 5.0,99.0 Q 1,99 1.26,95.01 L 5.74,24.99 Q 6,21 9.64,19.34 L 46.36,2.66 Q 50,1 53.64,2.66 Z" fill="none" stroke="#b9824a" stroke-width="2" stroke-linejoin="round"/>
    <path d="M28.18 35.82H37.45Q35.05 33.43 32.44 30.22Q30.42 33.13 28.18 35.82ZM60.84 45.91V49.65H69.80V45.91ZM60.84 37.32H69.80V33.58H60.84ZM47.76 77.97V35.97L45.14 40.08V45.91H37.30V49.80H45.89V60.11H37.30V75.73Q42.83 74.83 45.52 74.31L45.96 78.19ZM66.81 74.98Q63.38 68.25 61.88 60.11H60.84V76.18Q64.87 75.43 66.81 74.98ZM14.88 63.47 22.73 62.35Q23.70 68.40 24.22 75.05L16.37 76.18Q15.78 70.05 14.88 63.47ZM38.04 72.44Q38.72 66.54 38.79 61.98L46.26 62.35Q46.19 66.98 45.52 73.19ZM47.76 22.75H83.25V60.11H72.64Q73.31 62.80 74.21 65.04Q77.57 62.65 80.26 60.48L86.24 68.70Q82.28 71.99 79.89 73.71Q82.51 76.33 86.62 78.79L81.76 90.00Q73.61 86.49 68.16 77.45L68.68 85.52Q55.45 88.80 43.20 89.63L42.90 85.14Q28.11 87.98 16.00 89.25L14.51 78.79Q17.20 78.49 24.97 77.52V60.11H15.63V49.80H24.97V45.91H20.11V44.12Q18.09 45.91 15.63 47.78L13.38 34.70Q19.59 29.85 25.71 22.00H38.04Q43.87 27.83 47.76 30.82Z" fill="#4a3016" stroke="#4a3016" stroke-width="1.4" stroke-linejoin="round"/>
  </g>
</svg>
