<svg xmlns="http://www.w3.org/2000/svg" viewBox="0 0 100 100">
  <g>
    <path d="M62.36 55.33Q61.11 52.99 58.77 48.31V55.33ZM30.26 22.06H14.54V11.46H60.97V22.06H43.78V28.65H57.68V35.59L61.70 33.03Q62.14 34.20 63.16 36.54Q64.18 38.88 64.62 40.05V10.00H76.32V32.37Q78.30 26.23 81.08 22.43L85.46 35.96Q79.47 45.17 77.42 55.33H83.63V66.30H76.32V77.27H64.62V66.30H58.41V57.16H43.78V62.28H56.95V72.52H43.78V78.00H30.26V72.52H17.10V62.28H30.26V57.16H15.27V46.56H57.90Q57.31 45.32 56.00 42.76Q54.68 40.20 54.02 38.88H43.78V44.73H30.26V38.88H16.37V28.65H30.26Z" fill="#000" stroke="#000" stroke-width="1.4" stroke-linejoin="round"/>
  </g>
</svg>
