<svg xmlns="http://www.w3.org/2000/svg" viewBox="0 0 100 100">
  <g>
    <path d="M36.77 79.71H63.23V76.77H36.77ZM56.62 49.42V58.39H65.73Q60.59 53.90 56.62 49.42ZM43.38 49.42Q39.41 53.90 34.27 58.39H43.38ZM63.23 66.84H36.77V69.78H63.23ZM20.96 25.31Q59.34 25.31 77.20 22.00L79.77 31.92Q71.32 33.54 56.62 34.57V38.54H83.82V49.20H70.44Q77.13 54.20 86.02 58.39L81.98 69.78Q78.67 67.87 76.46 66.40V90.00H63.23V87.79H36.77V90.00H23.54V66.40Q21.33 67.87 18.02 69.78L13.98 58.39Q22.87 54.20 29.56 49.20H16.18V38.54H43.38V35.23Q32.21 35.60 21.70 35.60Z" fill="#000" stroke="#000" stroke-width="1.4" stroke-linejoin="round"/>
  </g>
</svg>
